<?xml version="1.0" encoding="UTF-8" standalone="no"?>
<!DOCTYPE svg PUBLIC "-//W3C//DTD SVG 1.1//EN" "http://www.w3.org/Graphics/SVG/1.1/DTD/svg11.dtd">
<svg width="100%" height="100%" viewBox="0 0 275 114" version="1.1" xmlns="http://www.w3.org/2000/svg" xmlns:xlink="http://www.w3.org/1999/xlink" xml:space="preserve" xmlns:serif="http://www.serif.com/" style="fill-rule:evenodd;clip-rule:evenodd;stroke-linecap:round;stroke-linejoin:round;stroke-miterlimit:1.5;">
    <g transform="matrix(1,0,0,1,-678.905,-3403.81)">
        <g transform="matrix(0.259749,0,0,1.04071,627.81,1947.62)">
            <g id="chartImage">
                <g transform="matrix(2.29672,0,0,0.573236,-4302.2,891.228)">
                    <path d="M2075.58,1072.61L2074.18,1072.61L2074.18,1076.38L2071.61,1076.38L2071.61,1065.71L2075.81,1065.71C2077.07,1065.71 2078.06,1066 2078.78,1066.56C2079.49,1067.12 2079.85,1067.91 2079.85,1068.94C2079.85,1069.68 2079.7,1070.3 2079.39,1070.78C2079.1,1071.27 2078.62,1071.67 2077.99,1071.97L2080.21,1076.27L2080.21,1076.38L2077.46,1076.38L2075.58,1072.61ZM2074.18,1070.63L2075.81,1070.63C2076.3,1070.63 2076.67,1070.5 2076.91,1070.25C2077.16,1069.99 2077.28,1069.63 2077.28,1069.17C2077.28,1068.71 2077.16,1068.35 2076.91,1068.09C2076.66,1067.83 2076.29,1067.7 2075.81,1067.7L2074.18,1067.7L2074.18,1070.63Z" style="fill:rgb(255,186,0);fill-rule:nonzero;"/>
                    <path d="M2088.01,1071.86L2083.97,1071.86L2083.97,1074.4L2088.74,1074.4L2088.74,1076.38L2081.4,1076.38L2081.4,1065.71L2088.76,1065.71L2088.76,1067.7L2083.97,1067.7L2083.97,1069.95L2088.01,1069.95L2088.01,1071.86Z" style="fill:rgb(255,186,0);fill-rule:nonzero;"/>
                    <path d="M2089.79,1076.38L2089.79,1065.71L2093.62,1065.71C2094.99,1065.71 2096.04,1065.97 2096.75,1066.47C2097.47,1066.97 2097.83,1067.7 2097.83,1068.66C2097.83,1069.21 2097.7,1069.68 2097.45,1070.07C2097.19,1070.46 2096.82,1070.75 2096.32,1070.94C2096.88,1071.08 2097.31,1071.36 2097.61,1071.76C2097.91,1072.16 2098.05,1072.65 2098.05,1073.22C2098.05,1074.27 2097.72,1075.05 2097.06,1075.58C2096.4,1076.1 2095.42,1076.37 2094.12,1076.38L2089.79,1076.38ZM2092.36,1071.85L2092.36,1074.4L2094.05,1074.4C2094.51,1074.4 2094.87,1074.3 2095.12,1074.08C2095.37,1073.87 2095.49,1073.57 2095.49,1073.19C2095.49,1072.3 2095.05,1071.85 2094.16,1071.85L2092.36,1071.85ZM2092.36,1070.16L2093.7,1070.16C2094.26,1070.16 2094.66,1070.05 2094.9,1069.85C2095.14,1069.65 2095.26,1069.36 2095.26,1068.97C2095.26,1068.52 2095.13,1068.19 2094.88,1068C2094.62,1067.8 2094.2,1067.7 2093.62,1067.7L2092.36,1067.7L2092.36,1070.16Z" style="fill:rgb(255,186,0);fill-rule:nonzero;"/>
                </g>
                <g transform="matrix(2.29672,0,0,0.573236,-4488.78,891.318)">
                    <path d="M2074.18,1072.76L2074.18,1076.38L2071.61,1076.38L2071.61,1065.71L2075.87,1065.71C2076.68,1065.71 2077.41,1065.87 2078.03,1066.16C2078.66,1066.47 2079.15,1066.89 2079.49,1067.45C2079.84,1068 2080.01,1068.63 2080.01,1069.33C2080.01,1070.37 2079.64,1071.2 2078.89,1071.83C2078.14,1072.45 2077.12,1072.76 2075.82,1072.76L2074.18,1072.76ZM2074.18,1070.78L2075.87,1070.78C2076.37,1070.78 2076.75,1070.65 2077.01,1070.4C2077.27,1070.15 2077.4,1069.8 2077.4,1069.35C2077.4,1068.85 2077.26,1068.45 2077,1068.15C2076.73,1067.86 2076.36,1067.7 2075.9,1067.7L2074.18,1067.7L2074.18,1070.78Z" style="fill:rgb(255,186,0);fill-rule:nonzero;"/>
                    <path d="M2089.75,1067.7L2086.55,1067.7L2086.55,1076.38L2083.98,1076.38L2083.98,1067.7L2080.84,1067.7L2080.84,1065.71L2089.75,1065.71L2089.75,1067.7Z" style="fill:rgb(255,186,0);fill-rule:nonzero;"/>
                    <path d="M2096.22,1073.55C2096.22,1073.17 2096.08,1072.88 2095.82,1072.67C2095.55,1072.46 2095.08,1072.24 2094.41,1072.01C2093.74,1071.79 2093.2,1071.57 2092.77,1071.36C2091.39,1070.68 2090.7,1069.75 2090.7,1068.56C2090.7,1067.97 2090.87,1067.45 2091.22,1067C2091.56,1066.55 2092.05,1066.2 2092.68,1065.95C2093.31,1065.69 2094.02,1065.57 2094.8,1065.57C2095.57,1065.57 2096.26,1065.7 2096.86,1065.98C2097.47,1066.25 2097.94,1066.64 2098.28,1067.15C2098.62,1067.65 2098.79,1068.23 2098.79,1068.88L2096.22,1068.88C2096.22,1068.44 2096.09,1068.11 2095.82,1067.87C2095.56,1067.63 2095.2,1067.51 2094.74,1067.51C2094.28,1067.51 2093.92,1067.61 2093.66,1067.81C2093.39,1068.02 2093.26,1068.27 2093.26,1068.59C2093.26,1068.86 2093.4,1069.11 2093.7,1069.33C2093.99,1069.55 2094.5,1069.78 2095.24,1070.02C2095.98,1070.26 2096.58,1070.51 2097.06,1070.78C2098.21,1071.45 2098.79,1072.36 2098.79,1073.53C2098.79,1074.46 2098.43,1075.19 2097.73,1075.73C2097.03,1076.26 2096.06,1076.53 2094.84,1076.53C2093.97,1076.53 2093.19,1076.37 2092.49,1076.06C2091.79,1075.75 2091.26,1075.33 2090.91,1074.79C2090.55,1074.25 2090.38,1073.62 2090.38,1072.92L2092.96,1072.92C2092.96,1073.49 2093.1,1073.91 2093.4,1074.18C2093.7,1074.46 2094.17,1074.59 2094.84,1074.59C2095.26,1074.59 2095.6,1074.5 2095.85,1074.32C2096.09,1074.13 2096.22,1073.88 2096.22,1073.55Z" style="fill:rgb(255,186,0);fill-rule:nonzero;"/>
                </g>
                <g transform="matrix(2.29672,0,0,0.573236,-4111.85,890.9)">
                    <path d="M2078.33,1072.13L2074.18,1072.13L2074.18,1076.38L2071.61,1076.38L2071.61,1065.71L2078.75,1065.71L2078.75,1067.7L2074.18,1067.7L2074.18,1070.15L2078.33,1070.15L2078.33,1072.13Z" style="fill:rgb(255,186,0);fill-rule:nonzero;"/>
                    <path d="M2088.55,1075.06C2088.15,1075.5 2087.57,1075.85 2086.81,1076.12C2086.05,1076.39 2085.21,1076.53 2084.31,1076.53C2082.91,1076.53 2081.79,1076.1 2080.96,1075.24C2080.12,1074.39 2079.68,1073.2 2079.62,1071.68L2079.61,1070.75C2079.61,1069.7 2079.8,1068.79 2080.17,1068C2080.54,1067.22 2081.07,1066.62 2081.76,1066.19C2082.45,1065.77 2083.25,1065.56 2084.16,1065.56C2085.49,1065.56 2086.52,1065.87 2087.25,1066.47C2087.99,1067.08 2088.42,1067.99 2088.54,1069.19L2086.06,1069.19C2085.98,1068.6 2085.79,1068.17 2085.49,1067.92C2085.2,1067.67 2084.78,1067.54 2084.25,1067.54C2083.6,1067.54 2083.11,1067.81 2082.75,1068.36C2082.4,1068.91 2082.22,1069.69 2082.22,1070.7L2082.22,1071.35C2082.22,1072.41 2082.4,1073.21 2082.76,1073.75C2083.13,1074.28 2083.7,1074.55 2084.48,1074.55C2085.15,1074.55 2085.65,1074.4 2085.98,1074.1L2085.98,1072.45L2084.19,1072.45L2084.19,1070.68L2088.55,1070.68L2088.55,1075.06Z" style="fill:rgb(255,186,0);fill-rule:nonzero;"/>
                    <path d="M2089.89,1067.77C2089.89,1067.11 2090.11,1066.57 2090.54,1066.17C2090.97,1065.76 2091.55,1065.56 2092.27,1065.56C2093,1065.56 2093.58,1065.76 2094,1066.16C2094.43,1066.57 2094.64,1067.11 2094.64,1067.8L2094.64,1068.33C2094.64,1068.99 2094.43,1069.52 2094,1069.92C2093.58,1070.32 2093.01,1070.52 2092.28,1070.52C2091.57,1070.52 2090.99,1070.32 2090.55,1069.92C2090.11,1069.53 2089.89,1068.98 2089.89,1068.29L2089.89,1067.77ZM2091.48,1068.33C2091.48,1068.58 2091.55,1068.79 2091.7,1068.95C2091.84,1069.11 2092.03,1069.19 2092.28,1069.19C2092.8,1069.19 2093.05,1068.86 2093.05,1068.2L2093.05,1067.77C2093.05,1067.51 2092.98,1067.3 2092.85,1067.14C2092.71,1066.98 2092.52,1066.89 2092.27,1066.89C2092.03,1066.89 2091.84,1066.97 2091.7,1067.13C2091.55,1067.29 2091.48,1067.51 2091.48,1067.78L2091.48,1068.33ZM2094.96,1073.76C2094.96,1073.1 2095.18,1072.57 2095.61,1072.17C2096.04,1071.77 2096.62,1071.57 2097.34,1071.57C2098.06,1071.57 2098.64,1071.77 2099.07,1072.16C2099.5,1072.56 2099.72,1073.11 2099.72,1073.82L2099.72,1074.33C2099.72,1074.99 2099.5,1075.53 2099.08,1075.92C2098.65,1076.33 2098.08,1076.53 2097.35,1076.53C2096.63,1076.53 2096.05,1076.33 2095.62,1075.93C2095.18,1075.53 2094.96,1074.99 2094.96,1074.29L2094.96,1073.76ZM2096.55,1074.33C2096.55,1074.56 2096.62,1074.76 2096.78,1074.93C2096.94,1075.11 2097.13,1075.19 2097.35,1075.19C2097.82,1075.19 2098.08,1074.97 2098.12,1074.52L2098.13,1073.76C2098.13,1073.51 2098.06,1073.3 2097.91,1073.14C2097.77,1072.98 2097.58,1072.9 2097.34,1072.9C2097.1,1072.9 2096.91,1072.97 2096.77,1073.12C2096.63,1073.27 2096.55,1073.47 2096.55,1073.73L2096.55,1074.33ZM2092.75,1075.58L2091.6,1075L2096.81,1066.67L2097.96,1067.25L2092.75,1075.58Z" style="fill:rgb(255,186,0);fill-rule:nonzero;"/>
                </g>
                <g transform="matrix(2.29672,0,0,0.573236,-3936.78,891.117)">
                    <path d="M2073.72,1070.01L2074.88,1070.01C2075.8,1070.01 2076.26,1069.56 2076.26,1068.66C2076.26,1068.31 2076.15,1068.02 2075.93,1067.8C2075.72,1067.58 2075.41,1067.46 2075,1067.46C2074.68,1067.46 2074.39,1067.56 2074.15,1067.75C2073.91,1067.94 2073.79,1068.18 2073.79,1068.46L2071.32,1068.46C2071.32,1067.9 2071.48,1067.4 2071.79,1066.96C2072.1,1066.52 2072.53,1066.18 2073.09,1065.93C2073.64,1065.68 2074.25,1065.56 2074.92,1065.56C2076.1,1065.56 2077.04,1065.83 2077.71,1066.37C2078.39,1066.92 2078.73,1067.66 2078.73,1068.61C2078.73,1069.07 2078.59,1069.5 2078.31,1069.91C2078.03,1070.32 2077.62,1070.65 2077.09,1070.9C2077.65,1071.11 2078.1,1071.42 2078.42,1071.83C2078.74,1072.25 2078.9,1072.77 2078.9,1073.38C2078.9,1074.34 2078.53,1075.1 2077.8,1075.67C2077.07,1076.24 2076.11,1076.53 2074.92,1076.53C2074.22,1076.53 2073.57,1076.39 2072.97,1076.13C2072.37,1075.86 2071.92,1075.49 2071.61,1075.02C2071.31,1074.55 2071.15,1074.01 2071.15,1073.41L2073.64,1073.41C2073.64,1073.74 2073.77,1074.02 2074.03,1074.26C2074.29,1074.5 2074.62,1074.62 2075,1074.62C2075.44,1074.62 2075.79,1074.5 2076.04,1074.26C2076.3,1074.02 2076.43,1073.71 2076.43,1073.33C2076.43,1072.8 2076.3,1072.41 2076.03,1072.19C2075.76,1071.96 2075.39,1071.85 2074.92,1071.85L2073.72,1071.85L2073.72,1070.01Z" style="fill:rgb(255,186,0);fill-rule:nonzero;"/>
                    <path d="M2082.87,1072.76L2082.87,1076.38L2080.3,1076.38L2080.3,1065.71L2084.55,1065.71C2085.37,1065.71 2086.09,1065.87 2086.72,1066.16C2087.35,1066.47 2087.83,1066.89 2088.18,1067.45C2088.52,1068 2088.69,1068.63 2088.69,1069.33C2088.69,1070.37 2088.32,1071.2 2087.58,1071.83C2086.83,1072.45 2085.81,1072.76 2084.51,1072.76L2082.87,1072.76ZM2082.87,1070.78L2084.55,1070.78C2085.05,1070.78 2085.43,1070.65 2085.69,1070.4C2085.95,1070.15 2086.09,1069.8 2086.09,1069.35C2086.09,1068.85 2085.95,1068.45 2085.68,1068.15C2085.41,1067.86 2085.05,1067.7 2084.59,1067.7L2082.87,1067.7L2082.87,1070.78Z" style="fill:rgb(255,186,0);fill-rule:nonzero;"/>
                    <path d="M2089.92,1067.77C2089.92,1067.11 2090.13,1066.57 2090.56,1066.17C2090.99,1065.76 2091.57,1065.56 2092.29,1065.56C2093.02,1065.56 2093.6,1065.76 2094.03,1066.16C2094.45,1066.57 2094.66,1067.11 2094.66,1067.8L2094.66,1068.33C2094.66,1068.99 2094.45,1069.52 2094.03,1069.92C2093.6,1070.32 2093.03,1070.52 2092.3,1070.52C2091.59,1070.52 2091.01,1070.32 2090.57,1069.92C2090.14,1069.53 2089.92,1068.98 2089.92,1068.29L2089.92,1067.77ZM2091.51,1068.33C2091.51,1068.58 2091.58,1068.79 2091.72,1068.95C2091.86,1069.11 2092.05,1069.19 2092.3,1069.19C2092.82,1069.19 2093.07,1068.86 2093.07,1068.2L2093.07,1067.77C2093.07,1067.51 2093.01,1067.3 2092.87,1067.14C2092.73,1066.98 2092.54,1066.89 2092.29,1066.89C2092.05,1066.89 2091.86,1066.97 2091.72,1067.13C2091.58,1067.29 2091.51,1067.51 2091.51,1067.78L2091.51,1068.33ZM2094.99,1073.76C2094.99,1073.1 2095.2,1072.57 2095.63,1072.17C2096.07,1071.77 2096.64,1071.57 2097.36,1071.57C2098.09,1071.57 2098.66,1071.77 2099.09,1072.16C2099.52,1072.56 2099.74,1073.11 2099.74,1073.82L2099.74,1074.33C2099.74,1074.99 2099.53,1075.53 2099.1,1075.92C2098.68,1076.33 2098.1,1076.53 2097.37,1076.53C2096.66,1076.53 2096.08,1076.33 2095.64,1075.93C2095.2,1075.53 2094.99,1074.99 2094.99,1074.29L2094.99,1073.76ZM2096.57,1074.33C2096.57,1074.56 2096.64,1074.76 2096.8,1074.93C2096.96,1075.11 2097.15,1075.19 2097.37,1075.19C2097.85,1075.19 2098.1,1074.97 2098.14,1074.52L2098.15,1073.76C2098.15,1073.51 2098.08,1073.3 2097.94,1073.14C2097.8,1072.98 2097.6,1072.9 2097.36,1072.9C2097.12,1072.9 2096.94,1072.97 2096.79,1073.12C2096.65,1073.27 2096.58,1073.47 2096.57,1073.73L2096.57,1074.33ZM2092.77,1075.58L2091.62,1075L2096.83,1066.67L2097.98,1067.25L2092.77,1075.58Z" style="fill:rgb(255,186,0);fill-rule:nonzero;"/>
                </g>
                <g transform="matrix(2.29672,0,0,0.573236,-3761.49,891.378)">
                    <path d="M2078.33,1072.13L2074.18,1072.13L2074.18,1076.38L2071.61,1076.38L2071.61,1065.71L2078.75,1065.71L2078.75,1067.7L2074.18,1067.7L2074.18,1070.15L2078.33,1070.15L2078.33,1072.13Z" style="fill:rgb(255,186,0);fill-rule:nonzero;"/>
                    <path d="M2088.34,1067.7L2085.13,1067.7L2085.13,1076.38L2082.56,1076.38L2082.56,1067.7L2079.42,1067.7L2079.42,1065.71L2088.34,1065.71L2088.34,1067.7Z" style="fill:rgb(255,186,0);fill-rule:nonzero;"/>
                    <path d="M2089.27,1067.77C2089.27,1067.11 2089.49,1066.57 2089.92,1066.17C2090.35,1065.76 2090.92,1065.56 2091.64,1065.56C2092.38,1065.56 2092.96,1065.76 2093.38,1066.16C2093.81,1066.57 2094.02,1067.11 2094.02,1067.8L2094.02,1068.33C2094.02,1068.99 2093.81,1069.52 2093.38,1069.92C2092.96,1070.32 2092.38,1070.52 2091.66,1070.52C2090.94,1070.52 2090.37,1070.32 2089.93,1069.92C2089.49,1069.53 2089.27,1068.98 2089.27,1068.29L2089.27,1067.77ZM2090.86,1068.33C2090.86,1068.58 2090.93,1068.79 2091.07,1068.95C2091.22,1069.11 2091.41,1069.19 2091.66,1069.19C2092.17,1069.19 2092.43,1068.86 2092.43,1068.2L2092.43,1067.77C2092.43,1067.51 2092.36,1067.3 2092.22,1067.14C2092.09,1066.98 2091.89,1066.89 2091.64,1066.89C2091.41,1066.89 2091.22,1066.97 2091.07,1067.13C2090.93,1067.29 2090.86,1067.51 2090.86,1067.78L2090.86,1068.33ZM2094.34,1073.76C2094.34,1073.1 2094.56,1072.57 2094.99,1072.17C2095.42,1071.77 2096,1071.57 2096.71,1071.57C2097.44,1071.57 2098.02,1071.77 2098.45,1072.16C2098.88,1072.56 2099.09,1073.11 2099.09,1073.82L2099.09,1074.33C2099.09,1074.99 2098.88,1075.53 2098.46,1075.92C2098.03,1076.33 2097.46,1076.53 2096.73,1076.53C2096.01,1076.53 2095.43,1076.33 2095,1075.93C2094.56,1075.53 2094.34,1074.99 2094.34,1074.29L2094.34,1073.76ZM2095.92,1074.33C2095.92,1074.56 2096,1074.76 2096.16,1074.93C2096.31,1075.11 2096.5,1075.19 2096.73,1075.19C2097.2,1075.19 2097.46,1074.97 2097.5,1074.52L2097.5,1073.76C2097.5,1073.51 2097.43,1073.3 2097.29,1073.14C2097.15,1072.98 2096.96,1072.9 2096.71,1072.9C2096.48,1072.9 2096.29,1072.97 2096.15,1073.12C2096.01,1073.27 2095.93,1073.47 2095.92,1073.73L2095.92,1074.33ZM2092.13,1075.58L2090.98,1075L2096.19,1066.67L2097.34,1067.25L2092.13,1075.58Z" style="fill:rgb(255,186,0);fill-rule:nonzero;"/>
                </g>
                <g transform="matrix(2.29672,0,0,0.573236,-5486.46,804.196)">
                    <path d="M2497.44,1040.46L2497.44,1200.89L2861.55,1200.89" style="fill:none;stroke:white;stroke-width:3.35px;"/>
                </g>
                <g transform="matrix(2.29672,0,0,0.573236,-5477.39,797.694)">
                    <path d="M2474.32,1199.31L2472.67,1199.31L2472.67,1194.05L2471.05,1194.53L2471.05,1193.28L2474.17,1192.2L2474.32,1192.2L2474.32,1199.31Z" style="fill:white;fill-rule:nonzero;"/>
                    <path d="M2481.4,1196.4C2481.4,1197.36 2481.18,1198.1 2480.75,1198.62C2480.32,1199.14 2479.71,1199.4 2478.93,1199.4C2478.14,1199.4 2477.52,1199.14 2477.09,1198.62C2476.66,1198.09 2476.44,1197.36 2476.44,1196.4L2476.44,1195.1C2476.44,1194.14 2476.66,1193.4 2477.09,1192.88C2477.52,1192.36 2478.13,1192.1 2478.92,1192.1C2479.7,1192.1 2480.32,1192.36 2480.75,1192.89C2481.18,1193.41 2481.4,1194.15 2481.4,1195.11L2481.4,1196.4ZM2479.75,1194.89C2479.75,1194.38 2479.68,1194 2479.55,1193.75C2479.42,1193.5 2479.21,1193.37 2478.92,1193.37C2478.63,1193.37 2478.43,1193.49 2478.3,1193.72C2478.17,1193.95 2478.1,1194.31 2478.09,1194.79L2478.09,1196.6C2478.09,1197.13 2478.16,1197.52 2478.29,1197.77C2478.43,1198.01 2478.64,1198.13 2478.93,1198.13C2479.21,1198.13 2479.41,1198.02 2479.55,1197.78C2479.68,1197.54 2479.75,1197.16 2479.75,1196.65L2479.75,1194.89Z" style="fill:white;fill-rule:nonzero;"/>
                </g>
                <g transform="matrix(2.29672,0,0,0.573236,-5477.39,765.06)">
                    <path d="M2475.01,1196.53L2475.74,1196.53L2475.74,1197.8L2475.01,1197.8L2475.01,1199.31L2473.37,1199.31L2473.37,1197.8L2470.62,1197.8L2470.52,1196.79L2473.37,1192.21L2473.37,1192.2L2475.01,1192.2L2475.01,1196.53ZM2472.09,1196.53L2473.37,1196.53L2473.37,1194.34L2473.27,1194.51L2472.09,1196.53Z" style="fill:white;fill-rule:nonzero;"/>
                    <path d="M2481.4,1196.4C2481.4,1197.36 2481.18,1198.1 2480.75,1198.62C2480.32,1199.14 2479.71,1199.4 2478.93,1199.4C2478.14,1199.4 2477.52,1199.14 2477.09,1198.62C2476.66,1198.09 2476.44,1197.36 2476.44,1196.4L2476.44,1195.1C2476.44,1194.14 2476.66,1193.4 2477.09,1192.88C2477.52,1192.36 2478.13,1192.1 2478.92,1192.1C2479.7,1192.1 2480.32,1192.36 2480.75,1192.89C2481.18,1193.41 2481.4,1194.15 2481.4,1195.11L2481.4,1196.4ZM2479.75,1194.89C2479.75,1194.38 2479.68,1194 2479.55,1193.75C2479.42,1193.5 2479.21,1193.37 2478.92,1193.37C2478.63,1193.37 2478.43,1193.49 2478.3,1193.72C2478.17,1193.95 2478.1,1194.31 2478.09,1194.79L2478.09,1196.6C2478.09,1197.13 2478.16,1197.52 2478.29,1197.77C2478.43,1198.01 2478.64,1198.13 2478.93,1198.13C2479.21,1198.13 2479.41,1198.02 2479.55,1197.78C2479.68,1197.54 2479.75,1197.16 2479.75,1196.65L2479.75,1194.89Z" style="fill:white;fill-rule:nonzero;"/>
                </g>
                <g transform="matrix(2.29672,0,0,0.573236,-5477.39,729.813)">
                    <path d="M2475.47,1194.1C2475.47,1194.44 2475.38,1194.75 2475.21,1195.01C2475.04,1195.27 2474.8,1195.49 2474.5,1195.64C2474.84,1195.81 2475.11,1196.04 2475.31,1196.33C2475.51,1196.61 2475.61,1196.95 2475.61,1197.35C2475.61,1197.98 2475.39,1198.49 2474.95,1198.85C2474.51,1199.22 2473.91,1199.4 2473.14,1199.4C2472.37,1199.4 2471.76,1199.22 2471.31,1198.85C2470.87,1198.48 2470.64,1197.98 2470.64,1197.35C2470.64,1196.97 2470.74,1196.63 2470.94,1196.34C2471.13,1196.05 2471.41,1195.81 2471.77,1195.64C2471.47,1195.49 2471.23,1195.27 2471.05,1195.01C2470.88,1194.75 2470.8,1194.44 2470.8,1194.1C2470.8,1193.48 2471.01,1192.99 2471.43,1192.63C2471.85,1192.27 2472.41,1192.1 2473.13,1192.1C2473.85,1192.1 2474.41,1192.27 2474.84,1192.63C2475.26,1192.99 2475.47,1193.48 2475.47,1194.1ZM2473.96,1197.22C2473.96,1196.92 2473.88,1196.7 2473.73,1196.54C2473.58,1196.38 2473.38,1196.3 2473.13,1196.3C2472.88,1196.3 2472.68,1196.38 2472.53,1196.54C2472.38,1196.7 2472.3,1196.92 2472.3,1197.22C2472.3,1197.5 2472.38,1197.72 2472.53,1197.89C2472.69,1198.05 2472.89,1198.13 2473.14,1198.13C2473.39,1198.13 2473.58,1198.05 2473.73,1197.89C2473.88,1197.73 2473.96,1197.5 2473.96,1197.22ZM2473.13,1193.36C2472.9,1193.36 2472.74,1193.44 2472.62,1193.58C2472.51,1193.73 2472.45,1193.93 2472.45,1194.18C2472.45,1194.44 2472.51,1194.64 2472.62,1194.8C2472.74,1194.96 2472.91,1195.03 2473.14,1195.03C2473.37,1195.03 2473.53,1194.96 2473.65,1194.8C2473.76,1194.64 2473.81,1194.44 2473.81,1194.18C2473.81,1193.93 2473.76,1193.73 2473.64,1193.58C2473.53,1193.44 2473.35,1193.36 2473.13,1193.36Z" style="fill:white;fill-rule:nonzero;"/>
                    <path d="M2481.4,1196.4C2481.4,1197.36 2481.18,1198.1 2480.75,1198.62C2480.32,1199.14 2479.71,1199.4 2478.93,1199.4C2478.14,1199.4 2477.52,1199.14 2477.09,1198.62C2476.66,1198.09 2476.44,1197.36 2476.44,1196.4L2476.44,1195.1C2476.44,1194.14 2476.66,1193.4 2477.09,1192.88C2477.52,1192.36 2478.13,1192.1 2478.92,1192.1C2479.7,1192.1 2480.32,1192.36 2480.75,1192.89C2481.18,1193.41 2481.4,1194.15 2481.4,1195.11L2481.4,1196.4ZM2479.75,1194.89C2479.75,1194.38 2479.68,1194 2479.55,1193.75C2479.42,1193.5 2479.21,1193.37 2478.92,1193.37C2478.63,1193.37 2478.43,1193.49 2478.3,1193.72C2478.17,1193.95 2478.1,1194.31 2478.09,1194.79L2478.09,1196.6C2478.09,1197.13 2478.16,1197.52 2478.29,1197.77C2478.43,1198.01 2478.64,1198.13 2478.93,1198.13C2479.21,1198.13 2479.41,1198.02 2479.55,1197.78C2479.68,1197.54 2479.75,1197.16 2479.75,1196.65L2479.75,1194.89Z" style="fill:white;fill-rule:nonzero;"/>
                </g>
                <g transform="matrix(2.29672,0,0,0.573236,-5477.39,779.69)">
                    <path d="M2475.63,1199.31L2470.67,1199.31L2470.67,1198.23L2472.95,1195.83C2473.52,1195.19 2473.8,1194.68 2473.8,1194.3C2473.8,1194 2473.73,1193.76 2473.6,1193.6C2473.47,1193.44 2473.27,1193.36 2473.02,1193.36C2472.77,1193.36 2472.56,1193.47 2472.41,1193.68C2472.25,1193.9 2472.17,1194.16 2472.17,1194.48L2470.52,1194.48C2470.52,1194.05 2470.63,1193.64 2470.85,1193.27C2471.07,1192.9 2471.37,1192.62 2471.76,1192.41C2472.15,1192.2 2472.58,1192.1 2473.06,1192.1C2473.83,1192.1 2474.42,1192.27 2474.83,1192.63C2475.25,1192.98 2475.45,1193.49 2475.45,1194.15C2475.45,1194.43 2475.4,1194.71 2475.3,1194.97C2475.19,1195.24 2475.03,1195.52 2474.81,1195.81C2474.59,1196.1 2474.24,1196.49 2473.75,1196.98L2472.83,1198.04L2475.63,1198.04L2475.63,1199.31Z" style="fill:white;fill-rule:nonzero;"/>
                    <path d="M2481.4,1196.4C2481.4,1197.36 2481.18,1198.1 2480.75,1198.62C2480.32,1199.14 2479.71,1199.4 2478.93,1199.4C2478.14,1199.4 2477.52,1199.14 2477.09,1198.62C2476.66,1198.09 2476.44,1197.36 2476.44,1196.4L2476.44,1195.1C2476.44,1194.14 2476.66,1193.4 2477.09,1192.88C2477.52,1192.36 2478.13,1192.1 2478.92,1192.1C2479.7,1192.1 2480.32,1192.36 2480.75,1192.89C2481.18,1193.41 2481.4,1194.15 2481.4,1195.11L2481.4,1196.4ZM2479.75,1194.89C2479.75,1194.38 2479.68,1194 2479.55,1193.75C2479.42,1193.5 2479.21,1193.37 2478.92,1193.37C2478.63,1193.37 2478.43,1193.49 2478.3,1193.72C2478.17,1193.95 2478.1,1194.31 2478.09,1194.79L2478.09,1196.6C2478.09,1197.13 2478.16,1197.52 2478.29,1197.77C2478.43,1198.01 2478.64,1198.13 2478.93,1198.13C2479.21,1198.13 2479.41,1198.02 2479.55,1197.78C2479.68,1197.54 2479.75,1197.16 2479.75,1196.65L2479.75,1194.89Z" style="fill:white;fill-rule:nonzero;"/>
                </g>
                <g transform="matrix(2.29672,0,0,0.573236,-5477.39,747.056)">
                    <path d="M2474.64,1192.1L2474.64,1193.39L2474.57,1193.39C2473.96,1193.39 2473.45,1193.54 2473.05,1193.83C2472.66,1194.12 2472.42,1194.54 2472.33,1195.06C2472.7,1194.69 2473.16,1194.51 2473.73,1194.51C2474.35,1194.51 2474.84,1194.74 2475.2,1195.19C2475.57,1195.63 2475.75,1196.22 2475.75,1196.95C2475.75,1197.41 2475.64,1197.82 2475.43,1198.2C2475.22,1198.58 2474.92,1198.87 2474.53,1199.08C2474.15,1199.3 2473.73,1199.4 2473.26,1199.4C2472.76,1199.4 2472.31,1199.29 2471.91,1199.06C2471.51,1198.83 2471.2,1198.5 2470.98,1198.08C2470.76,1197.65 2470.65,1197.16 2470.64,1196.6L2470.64,1195.94C2470.64,1195.21 2470.8,1194.55 2471.11,1193.97C2471.43,1193.38 2471.87,1192.92 2472.46,1192.59C2473.04,1192.26 2473.69,1192.1 2474.39,1192.1L2474.64,1192.1ZM2473.16,1195.77C2472.94,1195.77 2472.76,1195.82 2472.61,1195.92C2472.47,1196.02 2472.36,1196.15 2472.29,1196.29L2472.29,1196.79C2472.29,1197.69 2472.6,1198.13 2473.22,1198.13C2473.47,1198.13 2473.68,1198.02 2473.85,1197.8C2474.01,1197.57 2474.1,1197.29 2474.1,1196.95C2474.1,1196.61 2474.01,1196.32 2473.84,1196.1C2473.67,1195.88 2473.44,1195.77 2473.16,1195.77Z" style="fill:white;fill-rule:nonzero;"/>
                    <path d="M2481.4,1196.4C2481.4,1197.36 2481.18,1198.1 2480.75,1198.62C2480.32,1199.14 2479.71,1199.4 2478.93,1199.4C2478.14,1199.4 2477.52,1199.14 2477.09,1198.62C2476.66,1198.09 2476.44,1197.36 2476.44,1196.4L2476.44,1195.1C2476.44,1194.14 2476.66,1193.4 2477.09,1192.88C2477.52,1192.36 2478.13,1192.1 2478.92,1192.1C2479.7,1192.1 2480.32,1192.36 2480.75,1192.89C2481.18,1193.41 2481.4,1194.15 2481.4,1195.11L2481.4,1196.4ZM2479.75,1194.89C2479.75,1194.38 2479.68,1194 2479.55,1193.75C2479.42,1193.5 2479.21,1193.37 2478.92,1193.37C2478.63,1193.37 2478.43,1193.49 2478.3,1193.72C2478.17,1193.95 2478.1,1194.31 2478.09,1194.79L2478.09,1196.6C2478.09,1197.13 2478.16,1197.52 2478.29,1197.77C2478.43,1198.01 2478.64,1198.13 2478.93,1198.13C2479.21,1198.13 2479.41,1198.02 2479.55,1197.78C2479.68,1197.54 2479.75,1197.16 2479.75,1196.65L2479.75,1194.89Z" style="fill:white;fill-rule:nonzero;"/>
                </g>
                <g transform="matrix(2.29672,0,0,0.573236,-5477.39,715.884)">
                    <path d="M2474.32,1199.31L2472.67,1199.31L2472.67,1194.05L2471.05,1194.53L2471.05,1193.28L2474.17,1192.2L2474.32,1192.2L2474.32,1199.31Z" style="fill:white;fill-rule:nonzero;"/>
                    <path d="M2481.4,1196.4C2481.4,1197.36 2481.18,1198.1 2480.75,1198.62C2480.32,1199.14 2479.71,1199.4 2478.93,1199.4C2478.14,1199.4 2477.52,1199.14 2477.09,1198.62C2476.66,1198.09 2476.44,1197.36 2476.44,1196.4L2476.44,1195.1C2476.44,1194.14 2476.66,1193.4 2477.09,1192.88C2477.52,1192.36 2478.13,1192.1 2478.92,1192.1C2479.7,1192.1 2480.32,1192.36 2480.75,1192.89C2481.18,1193.41 2481.4,1194.15 2481.4,1195.11L2481.4,1196.4ZM2479.75,1194.89C2479.75,1194.38 2479.68,1194 2479.55,1193.75C2479.42,1193.5 2479.21,1193.37 2478.92,1193.37C2478.63,1193.37 2478.43,1193.49 2478.3,1193.72C2478.17,1193.95 2478.1,1194.31 2478.09,1194.79L2478.09,1196.6C2478.09,1197.13 2478.16,1197.52 2478.29,1197.77C2478.43,1198.01 2478.64,1198.13 2478.93,1198.13C2479.21,1198.13 2479.41,1198.02 2479.55,1197.78C2479.68,1197.54 2479.75,1197.16 2479.75,1196.65L2479.75,1194.89Z" style="fill:white;fill-rule:nonzero;"/>
                    <path d="M2487.19,1196.4C2487.19,1197.36 2486.97,1198.1 2486.54,1198.62C2486.11,1199.14 2485.5,1199.4 2484.72,1199.4C2483.93,1199.4 2483.32,1199.14 2482.88,1198.62C2482.45,1198.09 2482.23,1197.36 2482.23,1196.4L2482.23,1195.1C2482.23,1194.14 2482.45,1193.4 2482.88,1192.88C2483.31,1192.36 2483.92,1192.1 2484.71,1192.1C2485.5,1192.1 2486.11,1192.36 2486.54,1192.89C2486.97,1193.41 2487.19,1194.15 2487.19,1195.11L2487.19,1196.4ZM2485.54,1194.89C2485.54,1194.38 2485.48,1194 2485.34,1193.75C2485.21,1193.5 2485,1193.37 2484.71,1193.37C2484.43,1193.37 2484.22,1193.49 2484.09,1193.72C2483.96,1193.95 2483.89,1194.31 2483.88,1194.79L2483.88,1196.6C2483.88,1197.13 2483.95,1197.52 2484.08,1197.77C2484.22,1198.01 2484.43,1198.13 2484.72,1198.13C2485,1198.13 2485.2,1198.02 2485.34,1197.78C2485.47,1197.54 2485.54,1197.16 2485.54,1196.65L2485.54,1194.89Z" style="fill:white;fill-rule:nonzero;"/>
                </g>
                <g transform="matrix(2.29672,0,0,0.573236,-5486.46,804.196)">
                    <rect x="2502.27" y="1124.55" width="33.467" height="76.686" style="fill:rgb(213,67,73);stroke:white;stroke-width:3.35px;"/>
                </g>
                <g transform="matrix(2.29672,0,0,0.170594,-5301.99,1287.86)">
                    <rect x="2502.27" y="1124.55" width="33.467" height="76.686" style="fill:rgb(213,67,73);stroke:white;stroke-width:4.54px;"/>
                </g>
                <g transform="matrix(2.29672,0,0,0.465815,-5113.64,933.233)">
                    <rect x="2502.27" y="1124.55" width="33.467" height="76.686" style="fill:rgb(213,67,73);stroke:white;stroke-width:3.68px;"/>
                </g>
                <g transform="matrix(2.29672,0,0,0.412462,-4936.77,997.323)">
                    <rect x="2502.27" y="1124.55" width="33.467" height="76.686" style="fill:rgb(213,67,73);stroke:white;stroke-width:3.85px;"/>
                </g>
                <g transform="matrix(2.29672,0,0,0.842692,-4766.1,480.516)">
                    <rect x="2502.27" y="1124.55" width="33.467" height="76.686" style="fill:rgb(213,67,73);stroke:white;stroke-width:2.67px;"/>
                </g>
                <g transform="matrix(2.29672,0,0,0.573236,-5468.76,844.735)">
                    <circle cx="2913.99" cy="1086.63" r="11.91" style="fill:white;stroke:white;stroke-width:3.35px;"/>
                </g>
                <g transform="matrix(2.29672,0,0,0.573236,-5468.76,823.272)">
                    <circle cx="2913.99" cy="1086.63" r="11.91" style="fill:white;stroke:white;stroke-width:3.35px;"/>
                </g>
                <g transform="matrix(2.29672,0,0,0.573236,-5469.19,854.001)">
                    <path d="M2905.17,1035.86L2905.17,1028.75L2907.72,1028.75C2908.64,1028.75 2909.33,1028.91 2909.81,1029.25C2910.29,1029.58 2910.53,1030.07 2910.53,1030.71C2910.53,1031.08 2910.44,1031.39 2910.27,1031.65C2910.1,1031.91 2909.85,1032.1 2909.53,1032.23C2909.9,1032.33 2910.18,1032.51 2910.38,1032.77C2910.58,1033.04 2910.68,1033.37 2910.68,1033.75C2910.68,1034.45 2910.46,1034.97 2910.01,1035.32C2909.57,1035.67 2908.92,1035.85 2908.05,1035.86L2905.17,1035.86ZM2906.88,1032.83L2906.88,1034.54L2908.01,1034.54C2908.32,1034.54 2908.55,1034.47 2908.72,1034.32C2908.89,1034.18 2908.97,1033.98 2908.97,1033.73C2908.97,1033.13 2908.67,1032.84 2908.08,1032.83L2906.88,1032.83ZM2906.88,1031.71L2907.78,1031.71C2908.15,1031.71 2908.42,1031.64 2908.58,1031.5C2908.74,1031.37 2908.82,1031.17 2908.82,1030.91C2908.82,1030.61 2908.73,1030.4 2908.56,1030.27C2908.39,1030.13 2908.11,1030.07 2907.72,1030.07L2906.88,1030.07L2906.88,1031.71Z" style="fill:rgb(213,67,73);fill-rule:nonzero;"/>
                    <path d="M2915.66,1034.53L2913.31,1034.53L2912.9,1035.86L2911.07,1035.86L2913.68,1028.75L2915.29,1028.75L2917.91,1035.86L2916.07,1035.86L2915.66,1034.53ZM2913.72,1033.2L2915.25,1033.2L2914.48,1030.74L2913.72,1033.2Z" style="fill:rgb(213,67,73);fill-rule:nonzero;"/>
                    <path d="M2921.07,1033.35L2920.14,1033.35L2920.14,1035.86L2918.43,1035.86L2918.43,1028.75L2921.23,1028.75C2922.07,1028.75 2922.73,1028.93 2923.21,1029.31C2923.68,1029.68 2923.92,1030.21 2923.92,1030.89C2923.92,1031.39 2923.82,1031.8 2923.62,1032.12C2923.42,1032.45 2923.11,1032.71 2922.68,1032.91L2924.16,1035.78L2924.16,1035.86L2922.33,1035.86L2921.07,1033.35ZM2920.14,1032.02L2921.23,1032.02C2921.55,1032.02 2921.8,1031.94 2921.96,1031.77C2922.13,1031.6 2922.21,1031.36 2922.21,1031.05C2922.21,1030.74 2922.13,1030.5 2921.96,1030.33C2921.8,1030.16 2921.55,1030.07 2921.23,1030.07L2920.14,1030.07L2920.14,1032.02Z" style="fill:rgb(213,67,73);fill-rule:nonzero;"/>
                </g>
                <g transform="matrix(2.29672,0,0,0.573236,-5465.61,876.124)">
                    <path d="M2906.88,1033.44L2906.88,1035.86L2905.17,1035.86L2905.17,1028.75L2908.01,1028.75C2908.55,1028.75 2909.03,1028.85 2909.45,1029.05C2909.87,1029.25 2910.19,1029.53 2910.42,1029.9C2910.65,1030.27 2910.76,1030.69 2910.76,1031.16C2910.76,1031.85 2910.52,1032.4 2910.02,1032.82C2909.52,1033.24 2908.84,1033.44 2907.98,1033.44L2906.88,1033.44ZM2906.88,1032.12L2908.01,1032.12C2908.34,1032.12 2908.59,1032.04 2908.76,1031.87C2908.94,1031.7 2909.03,1031.47 2909.03,1031.17C2909.03,1030.84 2908.94,1030.57 2908.76,1030.37C2908.58,1030.17 2908.34,1030.07 2908.03,1030.07L2906.88,1030.07L2906.88,1032.12Z" style="fill:rgb(213,67,73);fill-rule:nonzero;"/>
                    <rect x="2911.8" y="1028.75" width="1.709" height="7.109" style="fill:rgb(213,67,73);fill-rule:nonzero;"/>
                    <path d="M2919.11,1032.84L2916.41,1032.84L2916.41,1034.54L2919.59,1034.54L2919.59,1035.86L2914.7,1035.86L2914.7,1028.75L2919.6,1028.75L2919.6,1030.07L2916.41,1030.07L2916.41,1031.57L2919.11,1031.57L2919.11,1032.84Z" style="fill:rgb(213,67,73);fill-rule:nonzero;"/>
                </g>
            </g>
        </g>
    </g>
</svg>
