<?xml version="1.0" encoding="UTF-8" standalone="no"?>
<!DOCTYPE svg PUBLIC "-//W3C//DTD SVG 1.1//EN" "http://www.w3.org/Graphics/SVG/1.1/DTD/svg11.dtd">
<svg width="100%" height="100%" viewBox="0 0 128 57" version="1.1" xmlns="http://www.w3.org/2000/svg" xmlns:xlink="http://www.w3.org/1999/xlink" xml:space="preserve" xmlns:serif="http://www.serif.com/" style="fill-rule:evenodd;clip-rule:evenodd;stroke-linecap:round;stroke-linejoin:round;stroke-miterlimit:1.5;">
    <g transform="matrix(1,0,0,1,-2536.21,-2925.14)">
        <g transform="matrix(0.997436,0,0,0.999079,2449.51,1976.95)">
            <g id="logoNavBar" transform="matrix(0.49426,0,0,0.49426,62.1595,470.46)">
                <g transform="matrix(0.206733,0,0,0.206733,-107.07,774.235)">
                    <g transform="matrix(1,0,0,1,693.04,0)">
                        <g transform="matrix(0.842967,0,0,0.841581,52.3689,1002.05)">
                            <circle cx="366.405" cy="389.039" r="182.75" style="fill:rgb(255,186,0);stroke:black;stroke-width:23.28px;"/>
                        </g>
                        <g transform="matrix(1.00257,0,0,1.00092,-6.11064,940.061)">
                            <path d="M212.748,389.039C212.748,389.039 343.788,300.864 520.062,389.039" style="fill:none;stroke:black;stroke-width:9.79px;"/>
                        </g>
                        <g transform="matrix(1.00257,0,0,1.00092,-6.11064,940.061)">
                            <path d="M470.047,275.636C470.047,275.636 376.445,405.819 470.047,503.875" style="fill:none;stroke:black;stroke-width:9.79px;"/>
                        </g>
                        <g transform="matrix(1.00257,0,0,1.00092,-6.11064,940.061)">
                            <path d="M366.405,235.381L366.405,542.69" style="fill:none;stroke:black;stroke-width:9.79px;"/>
                        </g>
                        <g transform="matrix(1.00257,0,0,1.00092,-6.11064,940.061)">
                            <path d="M259.949,278.275C259.949,278.275 362.039,403.052 259.949,501.371" style="fill:none;stroke:black;stroke-width:9.79px;"/>
                        </g>
                    </g>
                    <g transform="matrix(1.00257,0,0,1.00092,686.929,940.061)">
                        <path d="M353.522,543.818C353.522,543.818 927.869,537.588 464.914,506.54C464.914,506.54 425.128,543.649 353.522,543.818Z" style="fill:rgb(1,0,0);"/>
                    </g>
                </g>
                <g transform="matrix(0.284262,0,0,0.283795,18.404,939.212)">
                    <path d="M115.173,239.22L115.173,162.601L125.573,162.601L165.816,222.757L165.816,162.601L175.537,162.601L175.537,239.22L165.137,239.22L124.894,179.012L124.894,239.22L115.173,239.22Z" style="fill:rgb(1,0,0);fill-rule:nonzero;"/>
                    <path d="M353.856,239.22L353.856,137.062L392.183,137.062C399.988,137.062 406.248,138.095 410.963,140.163C415.678,142.23 419.372,145.412 422.043,149.71C424.714,154.007 426.05,158.502 426.05,163.194C426.05,167.561 424.865,171.672 422.496,175.528C420.127,179.384 416.549,182.496 411.764,184.866C417.943,186.678 422.693,189.767 426.015,194.134C429.337,198.501 430.997,203.658 430.997,209.604C430.997,214.389 429.987,218.837 427.966,222.949C425.945,227.06 423.448,230.231 420.475,232.461C417.502,234.691 413.774,236.375 409.29,237.513C404.807,238.651 399.314,239.22 392.81,239.22L353.856,239.22ZM367.375,179.988L389.465,179.988C395.458,179.988 399.755,179.593 402.357,178.803C405.795,177.781 408.385,176.085 410.127,173.716C411.869,171.347 412.74,168.374 412.74,164.796C412.74,161.405 411.927,158.42 410.301,155.842C408.675,153.264 406.352,151.498 403.332,150.546C400.313,149.593 395.133,149.117 387.793,149.117L367.375,149.117L367.375,179.988ZM367.375,227.165L392.81,227.165C397.177,227.165 400.243,227.002 402.008,226.677C405.121,226.119 407.723,225.19 409.813,223.889C411.904,222.589 413.623,220.696 414.97,218.21C416.317,215.725 416.991,212.856 416.991,209.604C416.991,205.795 416.015,202.484 414.064,199.674C412.113,196.863 409.407,194.889 405.946,193.751C402.485,192.612 397.502,192.043 390.998,192.043L367.375,192.043L367.375,227.165Z" style="fill:rgb(1,0,0);fill-rule:nonzero;"/>
                    <path d="M586.868,239.22L639.337,102.595L658.815,102.595L714.733,239.22L694.136,239.22L678.2,197.841L621.071,197.841L606.066,239.22L586.868,239.22ZM626.29,183.116L672.608,183.116L658.349,145.279C654,133.785 650.769,124.341 648.657,116.947C646.917,125.708 644.463,134.406 641.294,143.042L626.29,183.116Z" style="fill:rgb(1,0,0);fill-rule:nonzero;"/>
                </g>
                <g transform="matrix(0.284262,0,0,0.283795,18.404,997.523)">
                    <path d="M156.506,239.22L156.506,118.718L111.493,118.718L111.493,102.595L219.787,102.595L219.787,118.718L174.587,118.718L174.587,239.22L156.506,239.22Z" style="fill-rule:nonzero;"/>
                    <path d="M446.812,239.22L446.812,102.595L465.358,102.595L537.119,209.863L537.119,102.595L554.453,102.595L554.453,239.22L535.907,239.22L464.146,131.858L464.146,239.22L446.812,239.22Z" style="fill-rule:nonzero;"/>
                    <rect x="587.91" y="102.595" width="18.08" height="136.625" style="fill-rule:nonzero;"/>
                    <path d="M701.796,185.633L701.796,169.603L759.67,169.51L759.67,220.208C750.786,227.291 741.622,232.619 732.178,236.191C722.734,239.764 713.041,241.55 703.101,241.55C689.68,241.55 677.487,238.677 666.521,232.929C655.555,227.182 647.276,218.872 641.684,208C636.093,197.127 633.297,184.98 633.297,171.56C633.297,158.264 636.077,145.853 641.638,134.328C647.199,122.803 655.198,114.244 665.636,108.653C676.074,103.061 688.096,100.265 701.703,100.265C711.581,100.265 720.513,101.865 728.496,105.065C736.48,108.264 742.74,112.722 747.275,118.438C751.811,124.154 755.259,131.61 757.62,140.805L741.311,145.279C739.261,138.32 736.713,132.853 733.669,128.876C730.624,124.9 726.275,121.716 720.621,119.324C714.967,116.932 708.692,115.736 701.796,115.736C693.532,115.736 686.387,116.994 680.361,119.51C674.334,122.026 669.472,125.335 665.776,129.435C662.079,133.536 659.205,138.04 657.155,142.949C653.676,151.399 651.936,160.563 651.936,170.442C651.936,182.619 654.033,192.809 658.227,201.01C662.421,209.211 668.525,215.3 676.54,219.276C684.555,223.253 693.066,225.241 702.075,225.241C709.904,225.241 717.546,223.734 725.002,220.721C732.457,217.707 738.111,214.492 741.963,211.075L741.963,185.633L701.796,185.633Z" style="fill-rule:nonzero;"/>
                    <path d="M786.884,239.22L786.884,102.595L804.964,102.595L804.964,158.699L875.979,158.699L875.979,102.595L894.059,102.595L894.059,239.22L875.979,239.22L875.979,174.822L804.964,174.822L804.964,239.22L786.884,239.22Z" style="fill-rule:nonzero;"/>
                    <path d="M958.923,239.22L958.923,118.718L913.91,118.718L913.91,102.595L1022.2,102.595L1022.2,118.718L977.003,118.718L977.003,239.22L958.923,239.22Z" style="fill-rule:nonzero;"/>
                </g>
            </g>
        </g>
    </g>
</svg>
