<?xml version="1.0" encoding="UTF-8" standalone="no"?>
<!DOCTYPE svg PUBLIC "-//W3C//DTD SVG 1.1//EN" "http://www.w3.org/Graphics/SVG/1.1/DTD/svg11.dtd">
<svg width="100%" height="100%" viewBox="0 0 290 133" version="1.1" xmlns="http://www.w3.org/2000/svg" xmlns:xlink="http://www.w3.org/1999/xlink" xml:space="preserve" xmlns:serif="http://www.serif.com/" style="fill-rule:evenodd;clip-rule:evenodd;stroke-linecap:round;stroke-linejoin:round;stroke-miterlimit:1.5;">
    <g transform="matrix(1,0,0,1,-682.223,-2225.2)">
        <g transform="matrix(0.259749,0,0,1.04071,627.81,1135.08)">
            <g id="logoHeadingMobile">
                <g transform="matrix(0.89011,0,0,0.222528,-467.218,841.974)">
                    <g transform="matrix(1,0,0,1,693.04,0)">
                        <g transform="matrix(0.842967,0,0,0.841581,52.3689,1002.05)">
                            <circle cx="366.405" cy="389.039" r="182.75" style="fill:rgb(255,186,0);stroke:black;stroke-width:25.65px;"/>
                        </g>
                        <g transform="matrix(1.00257,0,0,1.00092,-6.11064,940.061)">
                            <path d="M212.748,389.039C212.748,389.039 343.788,300.864 520.062,389.039" style="fill:none;stroke:black;stroke-width:21.57px;"/>
                        </g>
                        <g transform="matrix(1.00257,0,0,1.00092,-6.11064,940.061)">
                            <path d="M470.047,275.636C470.047,275.636 376.445,405.819 470.047,503.875" style="fill:none;stroke:black;stroke-width:21.57px;"/>
                        </g>
                        <g transform="matrix(1.00257,0,0,1.00092,-6.11064,940.061)">
                            <path d="M366.405,235.381L366.405,542.69" style="fill:none;stroke:black;stroke-width:21.57px;"/>
                        </g>
                        <g transform="matrix(1.00257,0,0,1.00092,-6.11064,940.061)">
                            <path d="M259.949,278.275C259.949,278.275 362.039,403.052 259.949,501.371" style="fill:none;stroke:black;stroke-width:21.57px;"/>
                        </g>
                    </g>
                    <g transform="matrix(1.00257,0,0,1.00092,686.929,951.043)">
                        <path d="M353.522,543.818C353.522,543.818 927.869,537.588 464.914,506.54C464.914,506.54 425.128,543.649 353.522,543.818Z" style="fill:rgb(21,21,21);"/>
                    </g>
                </g>
                <g transform="matrix(1.22392,0,0,0.305477,73.0222,1016.14)">
                    <path d="M116.16,239.22L116.16,153.322L127.82,153.322L172.937,220.763L172.937,153.322L183.836,153.322L183.836,239.22L172.176,239.22L127.059,171.72L127.059,239.22L116.16,239.22Z" style="fill:white;fill-rule:nonzero;"/>
                    <path d="M364.484,239.22L364.484,124.689L407.453,124.689C416.203,124.689 423.221,125.848 428.507,128.165C433.794,130.483 437.934,134.051 440.929,138.869C443.924,143.686 445.421,148.725 445.421,153.986C445.421,158.882 444.093,163.491 441.437,167.814C438.781,172.137 434.77,175.626 429.406,178.283C436.333,180.314 441.658,183.777 445.382,188.673C449.106,193.569 450.968,199.35 450.968,206.017C450.968,211.382 449.835,216.369 447.57,220.978C445.304,225.587 442.505,229.142 439.171,231.642C435.838,234.142 431.658,236.03 426.632,237.306C421.606,238.582 415.447,239.22 408.156,239.22L364.484,239.22ZM379.64,172.814L404.406,172.814C411.124,172.814 415.942,172.371 418.859,171.486C422.713,170.34 425.617,168.439 427.57,165.783C429.523,163.126 430.499,159.793 430.499,155.783C430.499,151.981 429.588,148.634 427.765,145.744C425.942,142.853 423.338,140.874 419.953,139.806C416.567,138.738 410.76,138.205 402.531,138.205L379.64,138.205L379.64,172.814ZM379.64,225.705L408.156,225.705C413.052,225.705 416.489,225.522 418.468,225.158C421.958,224.533 424.874,223.491 427.218,222.033C429.562,220.574 431.489,218.452 432.999,215.665C434.51,212.879 435.265,209.663 435.265,206.017C435.265,201.746 434.171,198.035 431.984,194.884C429.796,191.733 426.762,189.52 422.882,188.244C419.002,186.968 413.416,186.33 406.124,186.33L379.64,186.33L379.64,225.705Z" style="fill:white;fill-rule:nonzero;"/>
                    <path d="M607.759,239.22L660.228,102.595L679.706,102.595L735.623,239.22L715.027,239.22L699.091,197.841L641.961,197.841L626.957,239.22L607.759,239.22ZM647.18,183.116L693.499,183.116L679.24,145.279C674.891,133.785 671.66,124.341 669.547,116.947C667.808,125.708 665.354,134.406 662.185,143.042L647.18,183.116Z" style="fill:white;fill-rule:nonzero;"/>
                </g>
                <g transform="matrix(1.22392,0,0,0.305477,73.0222,1082.32)">
                    <path d="M156.506,239.22L156.506,118.718L111.493,118.718L111.493,102.595L219.787,102.595L219.787,118.718L174.587,118.718L174.587,239.22L156.506,239.22Z" style="fill:white;fill-rule:nonzero;"/>
                    <path d="M446.812,239.22L446.812,102.595L465.358,102.595L537.119,209.863L537.119,102.595L554.453,102.595L554.453,239.22L535.907,239.22L464.146,131.858L464.146,239.22L446.812,239.22Z" style="fill:white;fill-rule:nonzero;"/>
                    <rect x="587.91" y="102.595" width="18.08" height="136.625" style="fill:white;fill-rule:nonzero;"/>
                    <path d="M701.796,185.633L701.796,169.603L759.67,169.51L759.67,220.208C750.786,227.291 741.622,232.619 732.178,236.191C722.734,239.764 713.041,241.55 703.101,241.55C689.68,241.55 677.487,238.677 666.521,232.929C655.555,227.182 647.276,218.872 641.684,208C636.093,197.127 633.297,184.98 633.297,171.56C633.297,158.264 636.077,145.853 641.638,134.328C647.199,122.803 655.198,114.244 665.636,108.653C676.074,103.061 688.096,100.265 701.703,100.265C711.581,100.265 720.513,101.865 728.496,105.065C736.48,108.264 742.74,112.722 747.275,118.438C751.811,124.154 755.259,131.61 757.62,140.805L741.311,145.279C739.261,138.32 736.713,132.853 733.669,128.876C730.624,124.9 726.275,121.716 720.621,119.324C714.967,116.932 708.692,115.736 701.796,115.736C693.532,115.736 686.387,116.994 680.361,119.51C674.334,122.026 669.472,125.335 665.776,129.435C662.079,133.536 659.205,138.04 657.155,142.949C653.676,151.399 651.936,160.563 651.936,170.442C651.936,182.619 654.033,192.809 658.227,201.01C662.421,209.211 668.525,215.3 676.54,219.276C684.555,223.253 693.066,225.241 702.075,225.241C709.904,225.241 717.546,223.734 725.002,220.721C732.457,217.707 738.111,214.492 741.963,211.075L741.963,185.633L701.796,185.633Z" style="fill:white;fill-rule:nonzero;"/>
                    <path d="M786.884,239.22L786.884,102.595L804.964,102.595L804.964,158.699L875.979,158.699L875.979,102.595L894.059,102.595L894.059,239.22L875.979,239.22L875.979,174.822L804.964,174.822L804.964,239.22L786.884,239.22Z" style="fill:white;fill-rule:nonzero;"/>
                    <path d="M958.923,239.22L958.923,118.718L913.91,118.718L913.91,102.595L1022.2,102.595L1022.2,118.718L977.003,118.718L977.003,239.22L958.923,239.22Z" style="fill:white;fill-rule:nonzero;"/>
                </g>
            </g>
        </g>
    </g>
</svg>
